<mxfile host="app.diagrams.net" agent="Mozilla/5.0 (Windows NT 10.0; Win64; x64) AppleWebKit/537.36 (KHTML, like Gecko) Chrome/136.0.0.0 Safari/537.36" version="27.1.4">
  <diagram name="Page-1" id="BrB76Mkp7CH0YVFy61YS">
    <mxGraphModel grid="1" page="1" gridSize="10" guides="1" tooltips="1" connect="1" arrows="1" fold="1" pageScale="1" pageWidth="827" pageHeight="1169" math="0" shadow="0">
      <root>
        <mxCell id="0" />
        <mxCell id="1" parent="0" />
        <mxCell id="yRXjg3UQ0RxQ8o7_SnkC-1" value="&lt;b style=&quot;color: rgb(32, 33, 34); font-family: sans-serif; font-size: 16px; text-align: start; background-color: rgb(255, 255, 255);&quot;&gt;League&lt;/b&gt;" style="swimlane;childLayout=stackLayout;horizontal=1;startSize=50;horizontalStack=0;rounded=1;fontSize=14;fontStyle=0;strokeWidth=2;resizeParent=0;resizeLast=1;shadow=0;dashed=0;align=center;arcSize=4;whiteSpace=wrap;html=1;" vertex="1" parent="1">
          <mxGeometry x="40" y="320" width="160" height="120" as="geometry" />
        </mxCell>
        <mxCell id="yRXjg3UQ0RxQ8o7_SnkC-2" value="Name: String&lt;br&gt;Area: String&lt;br&gt;Description: String" style="align=left;strokeColor=none;fillColor=none;spacingLeft=4;spacingRight=4;fontSize=12;verticalAlign=top;resizable=0;rotatable=0;part=1;html=1;whiteSpace=wrap;" vertex="1" parent="yRXjg3UQ0RxQ8o7_SnkC-1">
          <mxGeometry y="50" width="160" height="70" as="geometry" />
        </mxCell>
        <mxCell id="yRXjg3UQ0RxQ8o7_SnkC-5" value="Team" style="swimlane;childLayout=stackLayout;horizontal=1;startSize=50;horizontalStack=0;rounded=1;fontSize=14;fontStyle=0;strokeWidth=2;resizeParent=0;resizeLast=1;shadow=0;dashed=0;align=center;arcSize=4;whiteSpace=wrap;html=1;" vertex="1" parent="1">
          <mxGeometry x="280" y="320" width="160" height="120" as="geometry" />
        </mxCell>
        <mxCell id="yRXjg3UQ0RxQ8o7_SnkC-6" value="Name: String&lt;br&gt;Description: String" style="align=left;strokeColor=none;fillColor=none;spacingLeft=4;spacingRight=4;fontSize=12;verticalAlign=top;resizable=0;rotatable=0;part=1;html=1;whiteSpace=wrap;" vertex="1" parent="yRXjg3UQ0RxQ8o7_SnkC-5">
          <mxGeometry y="50" width="160" height="70" as="geometry" />
        </mxCell>
        <mxCell id="yRXjg3UQ0RxQ8o7_SnkC-7" value="Player" style="swimlane;childLayout=stackLayout;horizontal=1;startSize=50;horizontalStack=0;rounded=1;fontSize=14;fontStyle=0;strokeWidth=2;resizeParent=0;resizeLast=1;shadow=0;dashed=0;align=center;arcSize=4;whiteSpace=wrap;html=1;" vertex="1" parent="1">
          <mxGeometry x="520" y="320" width="160" height="120" as="geometry" />
        </mxCell>
        <mxCell id="yRXjg3UQ0RxQ8o7_SnkC-8" value="Name: String&lt;div&gt;Role: String&lt;br&gt;Description: String&lt;/div&gt;" style="align=left;strokeColor=none;fillColor=none;spacingLeft=4;spacingRight=4;fontSize=12;verticalAlign=top;resizable=0;rotatable=0;part=1;html=1;whiteSpace=wrap;" vertex="1" parent="yRXjg3UQ0RxQ8o7_SnkC-7">
          <mxGeometry y="50" width="160" height="70" as="geometry" />
        </mxCell>
        <mxCell id="yRXjg3UQ0RxQ8o7_SnkC-9" value="Game" style="swimlane;childLayout=stackLayout;horizontal=1;startSize=50;horizontalStack=0;rounded=1;fontSize=14;fontStyle=0;strokeWidth=2;resizeParent=0;resizeLast=1;shadow=0;dashed=0;align=center;arcSize=4;whiteSpace=wrap;html=1;" vertex="1" parent="1">
          <mxGeometry x="280" y="520" width="160" height="160" as="geometry" />
        </mxCell>
        <mxCell id="yRXjg3UQ0RxQ8o7_SnkC-10" value="Name: String&lt;div&gt;Description: String&lt;/div&gt;&lt;div&gt;Date: Date&lt;/div&gt;&lt;div&gt;StartTime: Time&lt;/div&gt;&lt;div&gt;EndTime: Time&lt;/div&gt;&lt;div&gt;State:String&lt;/div&gt;" style="align=left;strokeColor=none;fillColor=none;spacingLeft=4;spacingRight=4;fontSize=12;verticalAlign=top;resizable=0;rotatable=0;part=1;html=1;whiteSpace=wrap;" vertex="1" parent="yRXjg3UQ0RxQ8o7_SnkC-9">
          <mxGeometry y="50" width="160" height="110" as="geometry" />
        </mxCell>
        <mxCell id="yRXjg3UQ0RxQ8o7_SnkC-14" value="Statistics" style="swimlane;childLayout=stackLayout;horizontal=1;startSize=50;horizontalStack=0;rounded=1;fontSize=14;fontStyle=0;strokeWidth=2;resizeParent=0;resizeLast=1;shadow=0;dashed=0;align=center;arcSize=4;whiteSpace=wrap;html=1;" vertex="1" parent="1">
          <mxGeometry x="520" y="520" width="160" height="160" as="geometry" />
        </mxCell>
        <mxCell id="yRXjg3UQ0RxQ8o7_SnkC-15" value="Name: String&lt;div&gt;Value: Object&lt;/div&gt;&lt;div&gt;Type: String&lt;/div&gt;&lt;div&gt;&lt;br&gt;&lt;/div&gt;" style="align=left;strokeColor=none;fillColor=none;spacingLeft=4;spacingRight=4;fontSize=12;verticalAlign=top;resizable=0;rotatable=0;part=1;html=1;whiteSpace=wrap;" vertex="1" parent="yRXjg3UQ0RxQ8o7_SnkC-14">
          <mxGeometry y="50" width="160" height="110" as="geometry" />
        </mxCell>
        <mxCell id="yRXjg3UQ0RxQ8o7_SnkC-16" style="edgeStyle=orthogonalEdgeStyle;rounded=0;orthogonalLoop=1;jettySize=auto;html=1;exitX=1;exitY=0.25;exitDx=0;exitDy=0;entryX=0;entryY=0.5;entryDx=0;entryDy=0;endArrow=none;startFill=0;" edge="1" parent="1" source="yRXjg3UQ0RxQ8o7_SnkC-2" target="yRXjg3UQ0RxQ8o7_SnkC-5">
          <mxGeometry relative="1" as="geometry" />
        </mxCell>
        <mxCell id="yRXjg3UQ0RxQ8o7_SnkC-17" value="Teams" style="edgeLabel;html=1;align=center;verticalAlign=middle;resizable=0;points=[];" vertex="1" connectable="0" parent="yRXjg3UQ0RxQ8o7_SnkC-16">
          <mxGeometry x="0.1314" y="-1" relative="1" as="geometry">
            <mxPoint x="1" as="offset" />
          </mxGeometry>
        </mxCell>
        <mxCell id="yRXjg3UQ0RxQ8o7_SnkC-18" style="edgeStyle=orthogonalEdgeStyle;rounded=0;orthogonalLoop=1;jettySize=auto;html=1;exitX=1;exitY=0;exitDx=0;exitDy=0;entryX=0;entryY=0;entryDx=0;entryDy=0;endArrow=none;startFill=0;" edge="1" parent="1" source="yRXjg3UQ0RxQ8o7_SnkC-6" target="yRXjg3UQ0RxQ8o7_SnkC-8">
          <mxGeometry relative="1" as="geometry">
            <Array as="points">
              <mxPoint x="480" y="370" />
              <mxPoint x="480" y="370" />
            </Array>
          </mxGeometry>
        </mxCell>
        <mxCell id="yRXjg3UQ0RxQ8o7_SnkC-19" value="Players" style="edgeLabel;html=1;align=center;verticalAlign=middle;resizable=0;points=[];" vertex="1" connectable="0" parent="yRXjg3UQ0RxQ8o7_SnkC-18">
          <mxGeometry x="0.15" y="1" relative="1" as="geometry">
            <mxPoint as="offset" />
          </mxGeometry>
        </mxCell>
        <mxCell id="yRXjg3UQ0RxQ8o7_SnkC-20" style="edgeStyle=orthogonalEdgeStyle;rounded=0;orthogonalLoop=1;jettySize=auto;html=1;exitX=0.5;exitY=1;exitDx=0;exitDy=0;entryX=0;entryY=0.25;entryDx=0;entryDy=0;endArrow=none;startFill=0;" edge="1" parent="1" source="yRXjg3UQ0RxQ8o7_SnkC-2" target="yRXjg3UQ0RxQ8o7_SnkC-10">
          <mxGeometry relative="1" as="geometry" />
        </mxCell>
        <mxCell id="yRXjg3UQ0RxQ8o7_SnkC-21" value="Season" style="edgeLabel;html=1;align=center;verticalAlign=middle;resizable=0;points=[];" vertex="1" connectable="0" parent="yRXjg3UQ0RxQ8o7_SnkC-20">
          <mxGeometry x="-0.2693" y="-3" relative="1" as="geometry">
            <mxPoint as="offset" />
          </mxGeometry>
        </mxCell>
        <mxCell id="7XtJ00oH-t95EKW-I4qs-1" value="StatisticType" style="swimlane;childLayout=stackLayout;horizontal=1;startSize=50;horizontalStack=0;rounded=1;fontSize=14;fontStyle=0;strokeWidth=2;resizeParent=0;resizeLast=1;shadow=0;dashed=0;align=center;arcSize=4;whiteSpace=wrap;html=1;" vertex="1" parent="1">
          <mxGeometry x="40" y="720" width="160" height="120" as="geometry" />
        </mxCell>
        <mxCell id="7XtJ00oH-t95EKW-I4qs-2" value="Name: String&lt;div&gt;Description: String&lt;/div&gt;&lt;div&gt;MinValue: Number&lt;/div&gt;&lt;div&gt;MAxValue: Number&lt;/div&gt;" style="align=left;strokeColor=none;fillColor=none;spacingLeft=4;spacingRight=4;fontSize=12;verticalAlign=top;resizable=0;rotatable=0;part=1;html=1;whiteSpace=wrap;" vertex="1" parent="7XtJ00oH-t95EKW-I4qs-1">
          <mxGeometry y="50" width="160" height="70" as="geometry" />
        </mxCell>
        <mxCell id="bc5OYKnDl_i5goUKsnTD-2" value="Home" style="edgeStyle=orthogonalEdgeStyle;rounded=0;orthogonalLoop=1;jettySize=auto;html=1;exitX=0.25;exitY=1;exitDx=0;exitDy=0;entryX=0.25;entryY=0;entryDx=0;entryDy=0;endArrow=none;startFill=0;" edge="1" parent="1" source="yRXjg3UQ0RxQ8o7_SnkC-6" target="yRXjg3UQ0RxQ8o7_SnkC-9">
          <mxGeometry relative="1" as="geometry" />
        </mxCell>
        <mxCell id="bc5OYKnDl_i5goUKsnTD-3" style="edgeStyle=orthogonalEdgeStyle;rounded=0;orthogonalLoop=1;jettySize=auto;html=1;exitX=0.75;exitY=1;exitDx=0;exitDy=0;entryX=0.75;entryY=0;entryDx=0;entryDy=0;endArrow=none;startFill=0;" edge="1" parent="1" source="yRXjg3UQ0RxQ8o7_SnkC-6" target="yRXjg3UQ0RxQ8o7_SnkC-9">
          <mxGeometry relative="1" as="geometry" />
        </mxCell>
        <mxCell id="bc5OYKnDl_i5goUKsnTD-4" value="Visitor" style="edgeLabel;html=1;align=center;verticalAlign=middle;resizable=0;points=[];" connectable="0" vertex="1" parent="bc5OYKnDl_i5goUKsnTD-3">
          <mxGeometry x="0.05" y="-1" relative="1" as="geometry">
            <mxPoint as="offset" />
          </mxGeometry>
        </mxCell>
        <mxCell id="bc5OYKnDl_i5goUKsnTD-5" value="StatisticType" style="edgeStyle=orthogonalEdgeStyle;rounded=0;orthogonalLoop=1;jettySize=auto;html=1;exitX=0.25;exitY=1;exitDx=0;exitDy=0;entryX=0.25;entryY=0;entryDx=0;entryDy=0;endArrow=none;startFill=0;" edge="1" parent="1" source="yRXjg3UQ0RxQ8o7_SnkC-2" target="7XtJ00oH-t95EKW-I4qs-1">
          <mxGeometry relative="1" as="geometry" />
        </mxCell>
        <mxCell id="bc5OYKnDl_i5goUKsnTD-7" value="Game+StatisitcType" style="edgeStyle=orthogonalEdgeStyle;rounded=0;orthogonalLoop=1;jettySize=auto;html=1;exitX=0.5;exitY=1;exitDx=0;exitDy=0;entryX=0.5;entryY=0;entryDx=0;entryDy=0;" edge="1" parent="1" source="yRXjg3UQ0RxQ8o7_SnkC-8" target="yRXjg3UQ0RxQ8o7_SnkC-14">
          <mxGeometry relative="1" as="geometry" />
        </mxCell>
      </root>
    </mxGraphModel>
  </diagram>
</mxfile>
